<?xml version="1.0" standalone="no"?><!DOCTYPE svg PUBLIC "-//W3C//DTD SVG 1.1//EN" "http://www.w3.org/Graphics/SVG/1.1/DTD/svg11.dtd"><svg t="1639214327673" class="icon" viewBox="0 0 1024 1024" version="1.1" xmlns="http://www.w3.org/2000/svg" p-id="1119" xmlns:xlink="http://www.w3.org/1999/xlink" width="200" height="200"><defs><style type="text/css"></style></defs><path d="M588.8 934.4c-17.066667-4.266667-25.6-21.333333-25.6-38.4v-204.8c-68.266667-8.533333-128-4.266667-192 12.8-76.8 21.333333-170.666667 93.866667-273.066667 213.333333-12.8 17.066667-34.133333 21.333333-51.2 12.8-17.066667-8.533333-29.866667-25.6-25.6-42.666666 17.066667-162.133333 76.8-298.666667 187.733334-405.333334 98.133333-98.133333 213.333333-153.6 349.866666-166.4V128c0-17.066667 8.533333-34.133333 25.6-38.4 17.066667-8.533333 34.133333-4.266667 46.933334 8.533333l358.4 375.466667c17.066667 17.066667 17.066667 42.666667 0 59.733333l-358.4 392.533334c-8.533333 8.533333-21.333333 12.8-29.866667 12.8-4.266667 0-8.533333 0-12.8-4.266667z m55.466667-699.733333v123.733333c0 21.333333-17.066667 42.666667-42.666667 42.666667-132.266667 0-243.2 46.933333-337.066667 140.8-59.733333 59.733333-102.4 128-128 204.8 72.533333-68.266667 145.066667-110.933333 209.066667-128 85.333333-21.333333 166.4-25.6 260.266667-8.533334 21.333333 4.266667 34.133333 21.333333 34.133333 42.666667v132.266667l256-281.6-251.733333-268.8z" fill="#333333" p-id="1120"></path></svg>