<?xml version="1.0" standalone="no"?><!DOCTYPE svg PUBLIC "-//W3C//DTD SVG 1.1//EN" "http://www.w3.org/Graphics/SVG/1.1/DTD/svg11.dtd"><svg t="1639214320974" class="icon" viewBox="0 0 1024 1024" version="1.1" xmlns="http://www.w3.org/2000/svg" p-id="973" xmlns:xlink="http://www.w3.org/1999/xlink" width="200" height="200"><defs><style type="text/css"></style></defs><path d="M422.4 938.666667c-12.8 0-21.333333-4.266667-29.866667-12.8L34.133333 533.333333c-17.066667-17.066667-12.8-42.666667 0-59.733333l358.4-375.466667c8.533333-12.8 25.6-17.066667 42.666667-8.533333s25.6 21.333333 25.6 38.4v187.733333c136.533333 8.533333 256 64 354.133333 166.4 106.666667 106.666667 170.666667 243.2 187.733334 405.333334 0 17.066667-8.533333 38.4-25.6 42.666666-17.066667 8.533333-38.4 4.266667-51.2-12.8-98.133333-119.466667-192-196.266667-273.066667-213.333333-64-17.066667-123.733333-21.333333-192-12.8V896c0 17.066667-12.8 34.133333-25.6 38.4-4.266667 4.266667-8.533333 4.266667-12.8 4.266667z m-298.666667-435.2l256 281.6v-132.266667c0-21.333333 17.066667-38.4 34.133334-42.666667 93.866667-17.066667 174.933333-12.8 260.266666 8.533334 64 17.066667 136.533333 59.733333 209.066667 128-25.6-76.8-72.533333-149.333333-128-204.8-93.866667-93.866667-204.8-140.8-337.066667-140.8-21.333333 0-42.666667-21.333333-42.666666-42.666667V234.666667l-251.733334 268.8z" fill="#333333" p-id="974"></path></svg>